<?xml version="1.0" encoding="utf-8"?><!-- Uploaded to: SVG Repo, www.svgrepo.com, Generator: SVG Repo Mixer Tools -->
<svg  xmlns="http://www.w3.org/2000/svg"
	 width="800px" height="800px" viewBox="0 0 600 315" fill="none">
<path fill="#000000" opacity="1.000000" stroke="none" 
	d="
M144.000000,1.000000 
	C248.688095,1.000000 353.376190,1.000000 458.532166,1.468657 
	C459.000000,106.624878 459.000000,211.312439 459.000000,316.000000 
	C354.311890,316.000000 249.623795,316.000000 144.467850,315.531342 
	C144.000000,210.375122 144.000000,105.687561 144.000000,1.000000 
M355.224182,198.323532 
	C354.808563,201.400421 354.591492,204.519821 353.943451,207.546951 
	C350.929077,221.627792 342.631134,231.045670 329.214722,236.487976 
	C320.359497,240.080032 311.288849,240.252167 302.107056,239.947113 
	C282.458374,239.294312 267.021576,231.787720 259.266663,212.524719 
	C258.202820,209.882172 256.875000,208.847794 253.894836,208.895935 
	C241.742706,209.092285 229.585556,208.977463 217.430252,208.977310 
	C213.022324,208.977264 208.614395,208.977295 204.003937,208.977295 
	C204.446152,210.727554 204.758118,211.807541 204.990326,212.904419 
	C209.100739,232.319321 218.722382,248.679367 233.919693,261.199677 
	C252.880310,276.820404 275.714752,282.494904 299.722443,283.925262 
	C311.246185,284.611816 322.720062,283.778534 334.040894,281.047699 
	C353.872345,276.263885 371.608582,268.124084 384.780518,250.990601 
	C387.841156,245.727554 391.600342,240.743790 393.836395,235.151077 
	C401.744843,215.370834 401.785950,195.344894 392.415894,176.115173 
	C383.939056,158.718567 369.130188,147.767731 351.025635,142.150497 
	C334.141144,136.911819 316.775269,133.203156 299.575470,129.008759 
	C283.429413,125.071350 267.648956,120.218018 253.045410,111.151321 
	C253.364426,109.905205 253.825958,108.676407 253.979736,107.410225 
	C255.124588,97.983833 258.968109,89.403511 266.166809,83.678291 
	C281.695892,71.327873 299.554779,69.094307 318.419098,74.853111 
	C331.904480,78.969849 339.992493,88.597092 344.893127,101.522438 
	C361.284302,101.522438 377.638672,101.551971 393.991730,101.421501 
	C394.693390,101.415901 396.094543,99.783585 395.964142,99.162086 
	C395.066650,94.885391 394.190277,90.549225 392.676849,86.465767 
	C382.798279,59.811810 363.609070,42.514584 336.906616,34.285423 
	C320.786285,29.317440 303.974274,27.657494 286.820648,29.812109 
	C269.832672,31.945915 254.098328,36.569962 240.252869,46.921066 
	C234.211670,51.437569 228.006775,55.711803 224.284821,63.335842 
	C222.905426,65.735680 221.429199,68.085655 220.163300,70.543938 
	C214.449005,81.640762 211.507355,93.246246 211.802124,105.933586 
	C212.030991,115.784515 213.452286,125.137840 217.540527,134.033112 
	C225.773499,151.946533 240.770432,162.233078 258.742401,167.803146 
	C275.938660,173.132812 293.644287,176.865479 311.206879,180.952682 
	C326.901093,184.605057 342.131714,189.305969 355.224182,198.323532 
z"/>

<path fill="#F04939" opacity="1.000000" stroke="none" 
	d="
M253.104965,111.953201 
	C267.648956,120.218018 283.429413,125.071350 299.575470,129.008759 
	C316.775269,133.203156 334.141144,136.911819 351.025635,142.150497 
	C369.130188,147.767731 383.939056,158.718567 392.415894,176.115173 
	C401.785950,195.344894 401.744843,215.370834 393.836395,235.151077 
	C391.600342,240.743790 387.841156,245.727554 384.395813,250.586975 
	C383.674500,246.914200 383.352936,243.643402 382.998810,240.376160 
	C380.980042,221.751526 371.378693,207.951523 355.935028,197.873367 
	C342.131714,189.305969 326.901093,184.605057 311.206879,180.952682 
	C293.644287,176.865479 275.938660,173.132812 258.742401,167.803146 
	C240.770432,162.233078 225.773499,151.946533 217.540527,134.033112 
	C213.452286,125.137840 212.030991,115.784515 211.802124,105.933586 
	C211.507355,93.246246 214.449005,81.640762 220.163300,70.543938 
	C221.429199,68.085655 222.905426,65.735680 224.623627,63.589149 
	C225.552719,75.501625 228.381348,86.509377 235.164444,96.154785 
	C239.843430,102.808189 245.059708,109.036240 253.104965,111.953201 
z"/>
<path fill="#F37368" opacity="1.000000" stroke="none" 
	d="
M355.579590,198.098450 
	C371.378693,207.951523 380.980042,221.751526 382.998810,240.376160 
	C383.352936,243.643402 383.674500,246.914200 384.037170,250.636597 
	C371.608582,268.124084 353.872345,276.263885 334.040894,281.047699 
	C322.720062,283.778534 311.246185,284.611816 299.722443,283.925262 
	C275.714752,282.494904 252.880310,276.820404 233.919693,261.199677 
	C218.722382,248.679367 209.100739,232.319321 204.990326,212.904419 
	C204.758118,211.807541 204.446152,210.727554 204.003937,208.977295 
	C208.614395,208.977295 213.022324,208.977264 217.430252,208.977310 
	C229.585556,208.977463 241.742706,209.092285 253.894836,208.895935 
	C256.875000,208.847794 258.202820,209.882172 259.266663,212.524719 
	C267.021576,231.787720 282.458374,239.294312 302.107056,239.947113 
	C311.288849,240.252167 320.359497,240.080032 329.214722,236.487976 
	C342.631134,231.045670 350.929077,221.627792 353.943451,207.546951 
	C354.591492,204.519821 354.808563,201.400421 355.579590,198.098450 
z"/>
<path fill="#F37368" opacity="1.000000" stroke="none" 
	d="
M253.075195,111.552261 
	C245.059708,109.036240 239.843430,102.808189 235.164444,96.154785 
	C228.381348,86.509377 225.552719,75.501625 224.919464,63.410229 
	C228.006775,55.711803 234.211670,51.437569 240.252869,46.921066 
	C254.098328,36.569962 269.832672,31.945915 286.820648,29.812109 
	C303.974274,27.657494 320.786285,29.317440 336.906616,34.285423 
	C363.609070,42.514584 382.798279,59.811810 392.676849,86.465767 
	C394.190277,90.549225 395.066650,94.885391 395.964142,99.162086 
	C396.094543,99.783585 394.693390,101.415901 393.991730,101.421501 
	C377.638672,101.551971 361.284302,101.522438 344.893127,101.522438 
	C339.992493,88.597092 331.904480,78.969849 318.419098,74.853111 
	C299.554779,69.094307 281.695892,71.327873 266.166809,83.678291 
	C258.968109,89.403511 255.124588,97.983833 253.979736,107.410225 
	C253.825958,108.676407 253.364426,109.905205 253.075195,111.552261 
z"/>
</svg>