<svg version="1.1" id="Layer_1" xmlns="http://www.w3.org/2000/svg" xmlns:xlink="http://www.w3.org/1999/xlink" x="0px" y="0px"
     width="100%" viewBox="0 0 476 475" enable-background="new 0 0 476 475" xml:space="preserve">
    <defs>
        <linearGradient id="darkGradient" x1="0%" y1="0%" x2="100%" y2="100%">
            <stop offset="0%" style="stop-color:black;stop-opacity:1" />
            <stop offset="100%" style="stop-color:#8A2BE2;stop-opacity:1" />
        </linearGradient>
    </defs>
    <path fill="url(#darkGradient)" opacity="1.000000" stroke="#131313" stroke-width="10" 
        d="M205.755737,368.070007 C198.234940,370.100800 191.514267,369.219604 185.220627,365.327637 C178.855804,361.391663 172.665985,357.134003 166.097855,353.573730 C153.585938,346.791534 144.952591,350.245087 140.950912,363.894043 C138.952072,370.711670 138.086105,377.884247 136.999451,384.941162 C135.364822,395.556763 130.333664,403.989441 121.489647,410.074310 C120.069901,411.051147 118.341629,411.579529 116.410240,412.475616 C109.101181,377.845947 99.672203,344.491974 85.320267,311.547058 C83.474945,314.717560 82.082489,317.263611 80.540283,319.715485 C79.067535,322.056915 77.438835,324.300293 75.878693,326.586761 C75.384888,326.384888 74.891083,326.183014 74.397285,325.981140 C74.118774,320.751678 73.731186,315.525391 73.581039,310.292236 C72.999001,290.005676 67.002731,271.125305 59.527493,252.454590 C51.986767,233.620331 45.581722,214.316635 42.601154,194.150238 C33.200222,130.543945 75.884895,75.432877 134.695465,65.931923 C171.077835,60.054287 203.267151,69.350418 230.973068,93.839386 C232.263519,94.980011 234.004059,96.088814 235.645203,96.283562 C259.492676,99.113464 283.176300,99.189117 306.267120,91.273621 C315.985901,87.942017 324.808899,83.060898 332.409027,76.051918 C333.501801,75.044121 334.982849,74.457314 336.518219,73.535118 C341.057709,101.374763 322.095520,130.491776 290.269684,146.187119 C291.202515,146.187119 292.172485,146.356918 293.062744,146.162247 C313.495270,141.694000 328.538971,129.971329 338.488983,111.763123 C340.186035,108.657539 341.926575,107.721077 345.337891,107.606979 C375.541687,106.596664 403.652710,98.305367 429.642853,82.845352 C431.402405,81.798691 433.341949,81.054535 436.459229,79.568222 C435.644409,82.819611 435.382080,84.736008 434.693298,86.484360 C424.362579,112.706871 407.405518,133.111160 382.107819,146.157364 C380.778107,146.843063 379.450531,147.546494 378.187012,148.344620 C369.819031,153.630417 367.298126,162.040634 372.939758,170.181335 C377.732635,177.097275 383.821869,183.158752 389.654419,189.297211 C394.905975,194.824219 397.426849,201.129608 397.196106,208.721100 C396.840515,220.418213 389.021515,229.663574 377.466187,231.811172 C372.227020,232.784897 366.938843,233.564865 361.774292,234.842499 C358.916656,235.549454 356.050873,236.762894 353.573029,238.348480 C349.006226,241.270813 348.239563,245.028900 351.527252,249.320206 C353.928772,252.454803 356.911041,255.228165 359.967224,257.760986 C367.507751,264.010193 373.627319,270.927826 374.026459,281.449402 C374.071228,282.629211 375.731750,284.177643 377.010895,284.805511 C382.225616,287.364960 387.611481,289.573334 392.868988,292.049622 C394.198792,292.675964 395.287323,293.814514 396.486725,294.717682 C395.160614,295.519531 393.907928,296.502136 392.490112,297.078247 C390.650848,297.825562 388.698883,298.659424 386.763031,298.748016 C369.915833,299.519135 355.452881,307.971680 340.009735,313.213348 C335.658783,314.690125 331.408905,316.917725 327.636963,319.551758 C320.173187,324.763977 318.200775,331.942322 323.186035,339.512390 C327.992096,346.810455 334.033295,353.373840 340.048126,359.774872 C345.936829,366.041656 350.321472,372.972107 351.475342,381.475708 C352.113678,386.180115 351.589752,391.042267 351.589752,396.608795 C333.944458,389.136841 316.791077,381.285034 299.197937,374.588623 C281.574402,367.880646 263.511749,362.326385 245.641602,356.266418 C245.397491,356.760895 245.153381,357.255371 244.909271,357.749878 C247.090515,363.486450 249.271774,369.223022 251.453033,374.959595 C250.963684,375.328125 250.474335,375.696686 249.984985,376.065216 C240.230453,369.605316 230.475922,363.145416 222.124100,357.614410 C216.215225,361.452423 211.187973,364.717773 205.755737,368.070007 
M169.668640,164.095261 
	C162.049179,178.760284 154.429718,193.425293 146.516449,208.655823 
	C157.080673,207.400040 166.533096,205.233902 175.065491,200.036652 
	C183.389755,194.966125 188.106888,187.492569 187.729065,177.777664 
	C187.323486,167.349243 182.981552,158.033325 177.534012,148.875504 
	C174.871765,154.001038 172.426422,158.709000 169.668640,164.095261 
M81.521416,212.893555 
	C89.579849,228.027420 101.966370,231.946365 118.939240,219.030014 
	C104.436272,211.162827 90.382263,202.705475 75.827988,195.205170 
	C75.576782,195.634705 75.325577,196.064224 75.074371,196.493759 
	C77.096275,201.747818 79.118187,207.001862 81.521416,212.893555 
z"/>
<path fill="#FBFBFB" opacity="1.000000" stroke="none" 
	d="
M169.824860,163.756104 
	C172.426422,158.709000 174.871765,154.001038 177.534012,148.875504 
	C182.981552,158.033325 187.323486,167.349243 187.729065,177.777664 
	C188.106888,187.492569 183.389755,194.966125 175.065491,200.036652 
	C166.533096,205.233902 157.080673,207.400040 146.516449,208.655823 
	C154.429718,193.425293 162.049179,178.760284 169.824860,163.756104 
z"/>
<path fill="#FAFAFA" opacity="1.000000" stroke="none" 
	d="
M81.330750,212.574738 
	C79.118187,207.001862 77.096275,201.747818 75.074371,196.493759 
	C75.325577,196.064224 75.576782,195.634705 75.827988,195.205170 
	C90.382263,202.705475 104.436272,211.162827 118.939240,219.030014 
	C101.966370,231.946365 89.579849,228.027420 81.330750,212.574738 
z"/>
</svg>
